<svg width="27" height="23" viewBox="0 0 27 23" fill="none" xmlns="http://www.w3.org/2000/svg">
<path d="M26.9167 1.91667C26.9167 0.85651 26.0602 0 25 0H2.00002C0.939865 0 0.0833549 0.85651 0.0833549 1.91667C0.0833549 2.97682 0.939865 3.83333 2.00002 3.83333H25C26.0602 3.83333 26.9167 2.97682 26.9167 1.91667ZM26.9167 11.5C26.9167 10.4398 26.0602 9.58333 25 9.58333H2.00002C0.939865 9.58333 0.0833549 10.4398 0.0833549 11.5C0.0833549 12.5602 0.939865 13.4167 2.00002 13.4167H25C26.0602 13.4167 26.9167 12.5602 26.9167 11.5ZM0.0833549 21.0833C0.0833549 22.1435 0.939865 23 2.00002 23H25C26.0602 23 26.9167 22.1435 26.9167 21.0833C26.9167 20.0232 26.0602 19.1667 25 19.1667H2.00002C0.939865 19.1667 0.0833549 20.0232 0.0833549 21.0833Z" fill="#FCFCFC"/>
</svg>
